<?xml version="1.0" encoding="utf-8"?>
<!-- Generator: Adobe Illustrator 23.0.1, SVG Export Plug-In . SVG Version: 6.00 Build 0)  -->
<svg version="1.1" id="Layer_1" xmlns="http://www.w3.org/2000/svg" xmlns:xlink="http://www.w3.org/1999/xlink" x="0px" y="0px"
	 viewBox="0 0 100 125" style="enable-background:new 0 0 100 125;" xml:space="preserve">
<path d="M79.5,44h-59c-3.3,0-6,2.7-6,6s2.7,6,6,6h59c3.3,0,6-2.7,6-6S82.8,44,79.5,44z M20.5,36h59c3.3,0,6-2.7,6-6s-2.7-6-6-6h-59
	c-3.3,0-6,2.7-6,6S17.2,36,20.5,36z M79.5,64h-59c-3.3,0-6,2.7-6,6s2.7,6,6,6h59c3.3,0,6-2.7,6-6S82.8,64,79.5,64z"/>
</svg>
