<?xml version="1.0" encoding="utf-8"?>
<!-- Generator: Adobe Illustrator 23.0.1, SVG Export Plug-In . SVG Version: 6.00 Build 0)  -->
<svg version="1.1" id="Layer_1" xmlns="http://www.w3.org/2000/svg" xmlns:xlink="http://www.w3.org/1999/xlink" x="0px" y="0px"
	 viewBox="0 0 96 120" style="enable-background:new 0 0 96 120;" xml:space="preserve">
<style type="text/css">
	.st0{fill:#FFFFFF;}
</style>
<g>
	<path class="st0" d="M79.5,13.7c-0.1-0.1-0.2-0.2-0.3-0.2l-26-12.8c-0.2-0.1-0.4-0.1-0.5,0L21.8,9.7c-0.1,0-0.3,0.1-0.4,0.2
		L5.2,29.2c-0.1,0.1-0.1,0.2-0.2,0.4L0.5,61.2c0,0.2,0,0.4,0.1,0.5L17,85.3c0.1,0.1,0.2,0.2,0.3,0.2l26,12.8
		c0.1,0.1,0.2,0.1,0.3,0.1c0.1,0,0.1,0,0.2,0l30.8-9.1c0.1,0,0.3-0.1,0.4-0.2l16.2-19.3c0.1-0.1,0.1-0.2,0.2-0.4L96,37.9
		c0-0.2,0-0.4-0.1-0.5L79.5,13.7z M71.1,88.9l-2.5,0.3l17.3-15.3L74,88.1L71.1,88.9z M43.7,97l-2.6-12.6l26,5.2l-11.3,3.8L43.7,97
		L43.7,97z M18.1,84.4l-0.4-0.6l-2.8-21.6l25.4,21.8l-21.5,0.7L18.1,84.4z M52.8,2.1l6.6,3.3L76,15L48.6,9.8l4.1-7.7L52.8,2.1z
		 M41.1,56.4l-26.2,4.9l12.6-30.7L41.1,56.4z M27.8,30.3l33.3,3.1L41.5,56.2L27.8,30.3z M41.8,56.5l19.7-22.8l8,32.6L41.8,56.5z
		 M69.3,66.7L41,83.7l0.6-26.9L69.3,66.7z M61.2,33l-33.3-3.1l20.3-19.6L61.2,33z M48.7,10.3l28.2,5.3L61.6,32.9L48.7,10.3z
		 M14.5,60.9l-8.8-25l21.3-5.5L14.5,60.9z M41.2,56.8l-0.6,26.8L15,61.7L41.2,56.8z M69.6,67l-1.8,22.3L41.4,84L69.6,67z M61.9,33.6
		l24.6,9.7L69.9,66.1L61.9,33.6z M62,33.1l15.2-17.3l9.3,27L62,33.1z M78.4,14.8l8.7,12.6l-9.5-11.9L78.4,14.8z M77.2,15.2L65.3,8.3
		L78,14.5L77.2,15.2z M48.1,9.7l-22.6,0.4l26.5-7.8L48.1,9.7z M47.7,10.2L27.5,29.7L22.4,11l0,0l1.5-0.5L47.7,10.2z M22.1,11.4
		l5.1,18.5L5.9,35.4l13.9-21.3L22.1,11.4z M5.8,34.8l0.7-4.8l11-13L5.8,34.8z M5.5,36.7l8.7,24.6L2,61.1L5.5,36.7z M14.3,61.8
		L17.1,83L2.3,61.5L14.3,61.8z M40.6,84.4l2.6,12.4L19.5,85.1L40.6,84.4z M68,89.8l0.4-0.1l-2.1,0.6L68,89.8z M68.2,89L70,66.9
		l19.6,2.7l-1.8,2.1L68.2,89z M89.9,69.1l-19.7-2.7l16.5-22.7l3.4,23.9L89.9,69.1z M87.1,43.3l7.3-4.7l-4,27.5L87.1,43.3z M87,42.9
		l-9.1-26.3l12.7,15.8l3.9,5.6l0,0.1L87,42.9z"/>
	<path class="st0" d="M40.8,29.7L42,19.3l3.7,0.4c1.3,0.1,2.3,0.5,3,1.1c0.6,0.6,0.9,1.3,0.8,2.2c-0.1,0.5-0.2,1-0.5,1.3
		c-0.3,0.4-0.7,0.6-1.2,0.7c0.5,0.2,0.9,0.5,1.2,0.9s0.3,0.9,0.3,1.5c-0.1,1-0.5,1.7-1.2,2.2s-1.7,0.6-2.9,0.5L40.8,29.7z M44,23.9
		l1.3,0.1c0.5,0.1,0.9,0,1.2-0.2c0.3-0.2,0.4-0.4,0.4-0.8c0-0.4,0-0.8-0.3-1c-0.2-0.2-0.6-0.4-1.2-0.4l-1.2-0.1L44,23.9z M43.8,25.5
		L43.5,28l1.6,0.2c0.5,0.1,0.8,0,1.1-0.2c0.3-0.2,0.4-0.5,0.5-0.8c0.1-0.9-0.3-1.3-1.1-1.4L43.8,25.5z"/>
	<path class="st0" d="M72.5,45.5l3.4,0.8l1-1.8l2.6,0.6l-6.1,9.3l-2.3-0.5l-1.4-11l2.6,0.6L72.5,45.5z M74.8,48l-2.2-0.5l0.3,3.8
		L74.8,48z"/>
	<path class="st0" d="M30.4,42.8l5.5,8.9L33,53.4c-0.8,0.5-1.6,0.7-2.4,0.8c-0.8,0-1.6-0.2-2.4-0.6c-0.8-0.4-1.4-1-1.9-1.8l-0.3-0.4
		c-0.5-0.8-0.8-1.6-0.8-2.5c-0.1-0.9,0.1-1.7,0.5-2.4s1-1.4,1.7-1.8L30.4,42.8z M32.7,51.4l-3.4-5.6l-0.7,0.5
		c-0.6,0.4-0.9,0.9-1,1.5c-0.1,0.6,0.2,1.4,0.7,2.2l0.2,0.4c0.5,0.9,1.1,1.4,1.7,1.6c0.6,0.2,1.2,0.2,1.8-0.2L32.7,51.4z"/>
</g>
</svg>
