<?xml version="1.0" encoding="utf-8"?>
<!-- Generator: Adobe Illustrator 23.0.1, SVG Export Plug-In . SVG Version: 6.00 Build 0)  -->
<svg version="1.1" id="Layer_1" xmlns="http://www.w3.org/2000/svg" xmlns:xlink="http://www.w3.org/1999/xlink" x="0px" y="0px"
	 viewBox="0 0 96 120" style="enable-background:new 0 0 96 120;" xml:space="preserve">
<style type="text/css">
	.st0{fill:#FFFFFF;}
</style>
<path class="st0" d="M59.3,78.6L69,97l-0.9-20.4L57.8,38.4c3.3-2.9,5.3-7.1,5.3-11.5c0-7.1-5-13.3-11.9-14.8V4h-6.7v8.1
	c-6.8,1.5-11.8,7.7-11.8,14.8c0,4.4,2,8.6,5.3,11.5L27.8,76.3L27,97l9.5-18l4.3-15.7h5.7v2.5h3v-2.5h5.6L59.3,78.6z M65.5,83.9
	L63,79.2l2.3-0.6L65.5,83.9z M64.8,75.6l-3,0.8l-12-44.2l3-0.8L64.8,75.6z M46.7,21.2l0.2,1.5c0.6-0.1,1.4-0.1,2,0l0.2-1.5L49,22.7
	c3.8,0.5,6.7,3.8,6.8,7.7c0,0.1,0,0.2,0,0.3L55,27.8l-7,1.9l-7-1.9l-0.8,2.9c0-0.1,0-0.2,0-0.3c0-3.9,2.9-7.2,6.7-7.7L46.7,21.2z
	 M48.3,7v4.7c-0.2,0-0.5,0-0.7,0V7H48.3z M37.5,33.2c-1.1-1.9-1.8-4-1.8-6.3c0-6.1,4.5-11.3,10.5-12.1h0.1c1-0.2,2.2-0.2,3.2,0h0.1
	c6,0.8,10.5,6,10.5,12.1c0,2.2-0.6,4.4-1.7,6.2c0.2-0.9,0.3-1.8,0.3-2.7c0-5.4-4-10-9.3-10.7l0,0l0,0l0,0l0,0c-0.9-0.1-2-0.1-2.9,0
	l0,0l0,0l0,0l0,0c-5.3,0.7-9.3,5.3-9.3,10.7C37.1,31.4,37.3,32.3,37.5,33.2z M30.5,84l0.2-5.4l2.3,0.6L30.5,84z M34.2,76.4l-3-0.8
	l11.9-44.2l3,0.8L34.2,76.4z M49.5,60.3v-2.5h-3v2.5h-4.9l6.3-23.4l6.4,23.4L49.5,60.3z"/>
<g>
	<path class="st0" d="M37.3,90.7v-8.5h3.1c1.1,0,1.9,0.2,2.5,0.6s0.9,1,0.9,1.8c0,0.4-0.1,0.8-0.3,1.1s-0.5,0.5-0.9,0.7
		c0.4,0.1,0.8,0.3,1,0.7s0.4,0.7,0.4,1.2c0,0.8-0.3,1.5-0.8,1.9s-1.3,0.6-2.4,0.6L37.3,90.7L37.3,90.7z M39.3,85.7h1.1
		c0.4,0,0.8-0.1,1-0.2c0.2-0.2,0.3-0.4,0.3-0.7c0-0.4-0.1-0.6-0.3-0.8c-0.2-0.2-0.5-0.2-1-0.2h-1L39.3,85.7L39.3,85.7z M39.3,87.1v2
		h1.3c0.4,0,0.7-0.1,0.9-0.3s0.3-0.4,0.3-0.7c0-0.7-0.4-1.1-1.1-1.1L39.3,87.1L39.3,87.1z"/>
	<path class="st0" d="M49.9,89.1H47l-0.5,1.6h-2.2l3.1-8.5h1.9l3.2,8.5h-2.2L49.9,89.1z M47.5,87.5h1.8l-0.9-3L47.5,87.5z"/>
	<path class="st0" d="M53.2,90.7v-8.5h2.7c0.8,0,1.4,0.2,2,0.5s1.1,0.8,1.4,1.4s0.5,1.3,0.5,2.1v0.4c0,0.8-0.2,1.5-0.5,2.1
		s-0.8,1.1-1.4,1.5s-1.3,0.5-2,0.5H53.2z M55.3,83.8v5.4H56c0.6,0,1-0.2,1.4-0.6s0.5-1,0.5-1.9v-0.4c0-0.8-0.2-1.4-0.5-1.9
		s-0.8-0.6-1.4-0.6H55.3z"/>
</g>
</svg>
